<svg width="88" height="51" viewBox="0 0 88 51" fill="none" xmlns="http://www.w3.org/2000/svg">
<path d="M75.7348 5.63462C71.3233 6.42385 68.3951 11.8384 68.3951 11.8384C67.8156 0.41738 55.7861 0 55.7861 0C55.7861 0 54.6813 12.3317 67.8156 15.777C67.8156 15.777 69.1175 10.7305 76.2332 7.88848L75.7348 5.63462Z" fill="#FFA92E"/>
<path d="M66.9851 18.065C67.6186 18.032 68.2449 17.9158 68.8471 17.7197C69.4072 17.5375 70.1373 17.1126 71.5744 16.2778L72.7333 15.5948C76.5075 14.0164 78.9489 14.2858 80.498 14.836C81.9697 15.4574 83.4005 16.1683 84.7821 16.9646V16.9646C72.2581 31.4552 87.9845 38.4255 87.9845 38.4255C86.3234 46.0142 75.7542 54.7412 66.9696 49.2242C66.9696 49.2242 61.403 53.4625 54.3066 48.8144C53.8314 48.4767 53.1863 47.9949 52.46 47.3726C50.4383 45.6306 48.7049 43.5901 47.3222 41.3244C46.6539 40.2202 44.6953 36.9039 44.1622 32.8022C43.4785 27.5622 44.7726 18.0118 51.7454 15.1433C54.7779 13.895 58.9075 14.2023 64.4625 17.382C64.865 17.5821 65.2869 17.7423 65.7219 17.8601C66.1352 17.9683 66.5583 18.0369 66.9851 18.065V18.065Z" fill="#FFA92E"/>
<path d="M6.12 42.144C4.848 42.144 3.876 41.772 3.204 41.028C2.532 40.26 2.196 39.276 2.196 38.076V24.072H6.3V37.716C6.3 38.268 6.384 38.64 6.552 38.832C6.72 39.024 6.972 39.12 7.308 39.12C7.404 39.12 7.5 39.12 7.596 39.12C7.716 39.12 7.824 39.108 7.92 39.084C8.016 39.084 8.124 39.072 8.244 39.048L8.676 41.64C8.508 41.736 8.292 41.82 8.028 41.892C7.812 41.964 7.536 42.024 7.2 42.072C6.888 42.12 6.528 42.144 6.12 42.144ZM4.32 16.08C5.088 16.08 5.676 16.308 6.084 16.764C6.492 17.22 6.696 17.808 6.696 18.528C6.696 19.248 6.48 19.848 6.048 20.328C5.64 20.808 5.028 21.048 4.212 21.048C3.444 21.048 2.844 20.82 2.412 20.364C2.004 19.884 1.8 19.308 1.8 18.636C1.8 17.892 2.004 17.28 2.412 16.8C2.844 16.32 3.48 16.08 4.32 16.08ZM24.7714 22.524C24.1954 21.9 23.5834 21.432 22.9354 21.12C22.3114 20.784 21.5794 20.616 20.7394 20.616C19.7074 20.616 18.8314 20.856 18.1114 21.336C17.4154 21.792 16.8514 22.44 16.4194 23.28C15.9874 24.096 15.6754 25.056 15.4834 26.16C15.2914 27.264 15.1954 28.452 15.1954 29.724C15.1954 30.996 15.2794 32.184 15.4474 33.288C15.6394 34.392 15.9514 35.364 16.3834 36.204C16.8394 37.044 17.4394 37.704 18.1834 38.184C18.9514 38.664 19.9114 38.904 21.0634 38.904C21.6154 38.904 22.1434 38.856 22.6474 38.76C23.1514 38.664 23.6074 38.568 24.0154 38.472C24.4474 38.352 24.7954 38.244 25.0594 38.148C25.3474 38.052 25.5274 37.992 25.5994 37.968L26.6074 40.992L26.1394 41.172C25.8274 41.292 25.3834 41.436 24.8074 41.604C24.2554 41.748 23.5834 41.88 22.7914 42C22.0234 42.144 21.1714 42.216 20.2354 42.216C17.0194 42.216 14.5954 41.196 12.9634 39.156C11.3554 37.092 10.5514 34.08 10.5514 30.12C10.5514 28.224 10.7674 26.496 11.1994 24.936C11.6314 23.352 12.2794 21.996 13.1434 20.868C14.0314 19.74 15.1354 18.864 16.4554 18.24C17.7994 17.616 19.3714 17.304 21.1714 17.304C22.6114 17.304 23.7874 17.568 24.6994 18.096C25.6354 18.624 26.3914 19.224 26.9674 19.896L24.7714 22.524ZM42.8979 33.324C42.8979 34.764 42.9819 35.976 43.1499 36.96C43.3419 37.92 43.5459 38.7 43.7619 39.3C44.0259 40.02 44.3139 40.584 44.6259 40.992L41.4219 42.288C41.1099 41.976 40.8219 41.604 40.5579 41.172C40.3419 40.788 40.1379 40.332 39.9459 39.804C39.7539 39.252 39.6339 38.604 39.5859 37.86C39.1779 39.3 38.5179 40.392 37.6059 41.136C36.7179 41.856 35.5059 42.216 33.9699 42.216C32.8419 42.216 31.8579 42.012 31.0179 41.604C30.2019 41.172 29.5179 40.572 28.9659 39.804C28.4139 39.012 28.0059 38.064 27.7419 36.96C27.4779 35.856 27.3459 34.632 27.3459 33.288C27.3459 31.92 27.5499 30.66 27.9579 29.508C28.3899 28.332 28.9779 27.324 29.7219 26.484C30.4899 25.644 31.4019 24.984 32.4579 24.504C33.5139 24.024 34.6779 23.784 35.9499 23.784C36.6699 23.784 37.4139 23.844 38.1819 23.964C38.9739 24.06 39.7059 24.168 40.3779 24.288C41.0499 24.408 41.6139 24.528 42.0699 24.648C42.5499 24.744 42.8259 24.804 42.8979 24.828V33.324ZM34.6539 39.336C35.2539 39.336 35.8059 39.132 36.3099 38.724C36.8139 38.316 37.2459 37.788 37.6059 37.14C37.9899 36.468 38.2779 35.712 38.4699 34.872C38.6859 34.008 38.7939 33.132 38.7939 32.244V27.06C38.5539 26.988 38.1939 26.904 37.7139 26.808C37.2339 26.712 36.8019 26.664 36.4179 26.664C35.5059 26.664 34.7499 26.82 34.1499 27.132C33.5739 27.444 33.1059 27.876 32.7459 28.428C32.3859 28.98 32.1339 29.64 31.9899 30.408C31.8459 31.176 31.7739 32.016 31.7739 32.928C31.7739 33.768 31.7979 34.572 31.8459 35.34C31.8939 36.108 32.0139 36.792 32.2059 37.392C32.4219 37.992 32.7219 38.472 33.1059 38.832C33.4899 39.168 34.0059 39.336 34.6539 39.336ZM53.0187 23.64C53.7147 23.64 54.3987 23.712 55.0707 23.856C55.7427 24 56.3427 24.168 56.8707 24.36C57.4947 24.576 58.0707 24.804 58.5987 25.044L57.3747 27.852C56.8947 27.636 56.4147 27.444 55.9347 27.276C55.5267 27.132 55.0707 27 54.5667 26.88C54.0867 26.736 53.6067 26.664 53.1267 26.664C52.5747 26.664 52.0947 26.796 51.6867 27.06C51.3027 27.324 51.1107 27.72 51.1107 28.248C51.1107 29.616 52.1067 30.684 54.0987 31.452C54.8427 31.74 55.5147 32.052 56.1147 32.388C56.7147 32.7 57.2187 33.072 57.6267 33.504C58.0587 33.936 58.3827 34.44 58.5987 35.016C58.8147 35.568 58.9227 36.228 58.9227 36.996C58.9227 37.668 58.7787 38.328 58.4907 38.976C58.2267 39.624 57.8187 40.2 57.2667 40.704C56.7387 41.208 56.0787 41.616 55.2867 41.928C54.5187 42.216 53.6427 42.36 52.6587 42.36C51.8667 42.36 51.0867 42.264 50.3187 42.072C49.5507 41.904 48.8547 41.712 48.2307 41.496C47.6307 41.28 47.1507 41.076 46.7907 40.884L46.2507 40.632L47.5827 37.608L48.0507 37.86C48.3627 38.052 48.7587 38.256 49.2387 38.472C49.7187 38.688 50.2347 38.892 50.7867 39.084C51.3387 39.252 51.8427 39.336 52.2987 39.336C53.1387 39.336 53.7627 39.168 54.1707 38.832C54.5787 38.496 54.7827 38.052 54.7827 37.5C54.7827 36.876 54.5547 36.312 54.0987 35.808C53.6667 35.28 53.0067 34.848 52.1187 34.512C50.2707 33.816 48.9387 33.024 48.1227 32.136C47.3307 31.248 46.9347 30.096 46.9347 28.68C46.9347 28.008 47.0907 27.372 47.4027 26.772C47.7147 26.148 48.1347 25.608 48.6627 25.152C49.2147 24.672 49.8627 24.3 50.6067 24.036C51.3507 23.772 52.1547 23.64 53.0187 23.64ZM61.4827 33.468C61.4827 31.86 61.6987 30.444 62.1307 29.22C62.5867 27.996 63.1987 26.976 63.9667 26.16C64.7587 25.32 65.6827 24.696 66.7387 24.288C67.7947 23.856 68.9347 23.64 70.1587 23.64C71.2387 23.64 72.1507 23.772 72.8947 24.036C73.6627 24.3 74.2867 24.66 74.7667 25.116C75.2467 25.572 75.5947 26.112 75.8107 26.736C76.0507 27.36 76.1707 28.032 76.1707 28.752C76.1707 29.616 75.9307 30.444 75.4507 31.236C74.9707 32.004 74.2747 32.688 73.3627 33.288C72.4747 33.864 71.3947 34.332 70.1227 34.692C68.8507 35.028 67.4227 35.208 65.8387 35.232C65.9107 35.784 66.0187 36.312 66.1627 36.816C66.3307 37.296 66.5587 37.728 66.8467 38.112C67.1587 38.472 67.5547 38.76 68.0347 38.976C68.5147 39.192 69.1147 39.3 69.8347 39.3C70.3627 39.3 70.9267 39.24 71.5267 39.12C72.1267 39 72.6787 38.856 73.1827 38.688C73.7827 38.496 74.3707 38.28 74.9467 38.04L76.0267 40.596C75.4027 40.908 74.7307 41.184 74.0107 41.424C73.3867 41.64 72.6667 41.832 71.8507 42C71.0347 42.168 70.1707 42.252 69.2587 42.252C67.8667 42.252 66.6787 42.048 65.6947 41.64C64.7107 41.208 63.9067 40.608 63.2827 39.84C62.6587 39.072 62.2027 38.148 61.9147 37.068C61.6267 35.988 61.4827 34.788 61.4827 33.468ZM69.8347 26.448C69.0427 26.448 68.3827 26.64 67.8547 27.024C67.3507 27.384 66.9427 27.864 66.6307 28.464C66.3187 29.04 66.0907 29.7 65.9467 30.444C65.8267 31.164 65.7547 31.896 65.7307 32.64C66.8827 32.592 67.8547 32.448 68.6467 32.208C69.4627 31.944 70.1227 31.632 70.6267 31.272C71.1307 30.888 71.4907 30.48 71.7067 30.048C71.9467 29.616 72.0667 29.184 72.0667 28.752C72.0667 28.056 71.8627 27.504 71.4547 27.096C71.0467 26.664 70.5067 26.448 69.8347 26.448Z" fill="#2D2D2D"/>
</svg>
